<svg xmlns="http://www.w3.org/2000/svg" width="360" height="250" viewBox="0 0 360 250">
    <defs>
      <filter id="ground" x="-35%" y="-35%" width="170%" height="170%">
      <feDropShadow dx="0" dy="18" stdDeviation="12" flood-color="#020806" flood-opacity=".34"/>
    </filter>
    <filter id="grain" x="-10%" y="-10%" width="120%" height="120%">
      <feTurbulence type="fractalNoise" baseFrequency=".85" numOctaves="2" seed="9"/>
      <feColorMatrix type="saturate" values="0"/>
      <feComponentTransfer><feFuncA type="table" tableValues="0 .08"/></feComponentTransfer>
      <feBlend mode="multiply" in2="SourceGraphic"/>
    </filter>
      <linearGradient id="paper" x1="0" x2="1" y1="0" y2="1"><stop stop-color="#fff3c9"/><stop offset=".58" stop-color="#dbc07e"/><stop offset="1" stop-color="#8f6a43"/></linearGradient>
    </defs>
    <ellipse cx="178" cy="214" rx="130" ry="22" fill="#03100c" opacity=".22"/>
    <g filter="url(#ground)" transform="rotate(-12 180 125)">
      <path d="M50 70l214-39 58 49-26 105L84 218 36 117z" fill="url(#paper)"/>
      <path d="M264 31l58 49-66 3z" fill="#f6d99a"/>
      <path d="M70 103c62 12 129 3 211-23" stroke="#6c4a2b" stroke-width="8" stroke-linecap="round" opacity=".42"/>
      <path d="M91 132l139-25M103 158l102-18M101 187l150-27" stroke="#6c4a2b" stroke-width="7" stroke-linecap="round" opacity=".35"/>
      <path d="M204 128l72-13 10 39-72 12z" fill="#a83a27" opacity=".82"/>
      <path d="M217 143l45-8M222 155l34-6" stroke="#fff1c7" stroke-width="5" stroke-linecap="round" opacity=".82"/>
      <path d="M55 124c58 23 126 20 214-16" stroke="#8e693e" stroke-width="4" fill="none" opacity=".35"/>
      <rect x="37" y="49" width="270" height="170" fill="#fff" opacity=".01" filter="url(#grain)"/>
    </g>
  </svg>