<svg xmlns="http://www.w3.org/2000/svg" width="400" height="310" viewBox="0 0 400 310">
    <defs>
      <filter id="ground" x="-35%" y="-35%" width="170%" height="170%">
      <feDropShadow dx="0" dy="18" stdDeviation="12" flood-color="#020806" flood-opacity=".34"/>
    </filter>
    <filter id="grain" x="-10%" y="-10%" width="120%" height="120%">
      <feTurbulence type="fractalNoise" baseFrequency=".85" numOctaves="2" seed="9"/>
      <feColorMatrix type="saturate" values="0"/>
      <feComponentTransfer><feFuncA type="table" tableValues="0 .08"/></feComponentTransfer>
      <feBlend mode="multiply" in2="SourceGraphic"/>
    </filter>
      <linearGradient id="body" x1="0" x2="1"><stop stop-color="#0e1713"/><stop offset="1" stop-color="#26362d"/></linearGradient>
    </defs>
    <ellipse cx="206" cy="268" rx="142" ry="24" fill="#03100c" opacity=".24"/>
    <g filter="url(#ground)" transform="rotate(3 200 155)">
      <path d="M67 42l263 18 20 199-287-25z" fill="#07100d"/>
      <path d="M88 65l221 15 14 149-237-18z" fill="#dfe6d2"/>
      <circle cx="113" cy="95" r="12" fill="#b9944c"/>
      <path d="M136 84l122 9" stroke="#fff8df" stroke-width="19" stroke-linecap="round"/>
      <circle cx="277" cy="139" r="12" fill="#3d8457"/>
      <path d="M122 130l126 9" stroke="#cddfc7" stroke-width="19" stroke-linecap="round"/>
      <circle cx="109" cy="178" r="12" fill="#b9462c"/>
      <path d="M134 169l96 7" stroke="#fff8df" stroke-width="19" stroke-linecap="round"/>
      <path d="M101 211l196 15" stroke="#829174" stroke-width="7" stroke-linecap="round" opacity=".44"/>
      <path d="M88 65l221 15" stroke="#f3c45b" stroke-width="5" opacity=".35"/>
      <circle cx="198" cy="245" r="8" fill="#2c3d34"/>
      <path d="M72 45l260 18" stroke="#53665a" stroke-width="9" opacity=".38"/>
    </g>
  </svg>