<svg xmlns="http://www.w3.org/2000/svg" width="250" height="420" viewBox="0 0 250 420">
    <defs>
      <filter id="ground" x="-35%" y="-35%" width="170%" height="170%">
      <feDropShadow dx="0" dy="18" stdDeviation="12" flood-color="#020806" flood-opacity=".34"/>
    </filter>
    <filter id="grain" x="-10%" y="-10%" width="120%" height="120%">
      <feTurbulence type="fractalNoise" baseFrequency=".85" numOctaves="2" seed="9"/>
      <feColorMatrix type="saturate" values="0"/>
      <feComponentTransfer><feFuncA type="table" tableValues="0 .08"/></feComponentTransfer>
      <feBlend mode="multiply" in2="SourceGraphic"/>
    </filter>
      <linearGradient id="phone" x1="0" x2="1"><stop stop-color="#080d0b"/><stop offset="1" stop-color="#243229"/></linearGradient>
    </defs>
    <ellipse cx="126" cy="372" rx="78" ry="24" fill="#03100c" opacity=".28"/>
    <g filter="url(#ground)" transform="rotate(-7 125 210)">
      <path d="M47 33h153l16 329-152 18z" fill="url(#phone)"/>
      <path d="M66 67h111l12 247-113 13z" fill="#ddd1a0"/>
      <path d="M82 91h84l3 39-83 7z" fill="#b9462c"/>
      <path d="M94 113l41-4M91 172l20-31 20 17 23-44 19 15" stroke="#fff0bd" stroke-width="7" fill="none" stroke-linecap="round" stroke-linejoin="round"/>
      <path d="M83 220l76-8M87 254l56-7" stroke="#6d5637" stroke-width="10" stroke-linecap="round" opacity=".5"/>
      <circle cx="129" cy="342" r="10" fill="#2d3c33"/>
      <circle cx="174" cy="71" r="14" fill="#f3c45b"/>
      <path d="M51 42l151-1" stroke="#53665a" stroke-width="7" opacity=".38"/>
    </g>
  </svg>