<svg xmlns="http://www.w3.org/2000/svg" width="460" height="260" viewBox="0 0 460 260">
    <defs>
      <filter id="ground" x="-35%" y="-35%" width="170%" height="170%">
      <feDropShadow dx="0" dy="18" stdDeviation="12" flood-color="#020806" flood-opacity=".34"/>
    </filter>
    <filter id="grain" x="-10%" y="-10%" width="120%" height="120%">
      <feTurbulence type="fractalNoise" baseFrequency=".85" numOctaves="2" seed="9"/>
      <feColorMatrix type="saturate" values="0"/>
      <feComponentTransfer><feFuncA type="table" tableValues="0 .08"/></feComponentTransfer>
      <feBlend mode="multiply" in2="SourceGraphic"/>
    </filter>
      <linearGradient id="board" x1="0" x2="1"><stop stop-color="#d9c385"/><stop offset="1" stop-color="#8d6b35"/></linearGradient>
    </defs>
    <g filter="url(#ground)" transform="rotate(1 230 130)">
      <path d="M64 57l335 4-24 137-290-7z" fill="url(#board)"/>
      <path d="M86 76l288 4-17 95-254-7z" fill="#26342b"/>
      <path d="M107 98l218 5M108 137l184 4" stroke="#f3c45b" stroke-width="11" stroke-linecap="round"/>
      <path d="M112 119l108 2M112 157l154 4" stroke="#fff2ba" stroke-width="10" stroke-linecap="round" opacity=".82"/>
      <path d="M58 202h352" stroke="#7a5b2f" stroke-width="18" stroke-linecap="round"/>
      <circle cx="86" cy="68" r="10" fill="#b63b24"/><circle cx="378" cy="70" r="10" fill="#b63b24"/>
      <path d="M70 58l322 4" stroke="#fff2ba" stroke-width="5" opacity=".18"/>
    </g>
  </svg>