<svg xmlns="http://www.w3.org/2000/svg" viewBox="0 0 900 760" role="img" aria-label="朋友圈炫富现场背景">
  <defs>
    <linearGradient id="bg" x1="0" x2="1" y1="0" y2="1">
      <stop stop-color="#17261f"/>
      <stop offset=".58" stop-color="#2f4b3b"/>
      <stop offset="1" stop-color="#f0c96f"/>
    </linearGradient>
    <filter id="shadow" x="-20%" y="-20%" width="140%" height="145%">
      <feDropShadow dx="0" dy="16" stdDeviation="16" flood-color="#0b1511" flood-opacity=".34"/>
    </filter>
  </defs>
  <rect width="900" height="760" fill="url(#bg)"/>
  <circle cx="732" cy="104" r="98" fill="#f3c45b" opacity=".2"/>
  <path d="M0 550 C180 500 270 580 430 530 S720 500 900 540 V760 H0 Z" fill="#0f1d18" opacity=".42"/>
  <g filter="url(#shadow)">
    <rect x="92" y="72" width="360" height="612" rx="46" fill="#f7f9f5"/>
    <rect x="118" y="110" width="308" height="74" rx="24" fill="#17261f"/>
    <circle cx="156" cy="147" r="24" fill="#f3c45b"/>
    <text x="194" y="139" font-family="Arial, sans-serif" font-size="22" font-weight="900" fill="#fff">朋友圏</text>
    <text x="194" y="166" font-family="Arial, sans-serif" font-size="15" fill="#dbe8dd">今天没人亏钱，除了你</text>
    <rect x="124" y="214" width="296" height="92" rx="18" fill="#eaf0eb"/>
    <rect x="124" y="330" width="296" height="92" rx="18" fill="#fff2d6"/>
    <rect x="124" y="446" width="296" height="92" rx="18" fill="#eaf0eb"/>
    <rect x="124" y="562" width="296" height="80" rx="18" fill="#f6dfd8"/>
  </g>
  <g filter="url(#shadow)">
    <rect x="510" y="118" width="280" height="410" rx="30" fill="#21362c"/>
    <rect x="540" y="154" width="220" height="66" rx="16" fill="#f7f9f5"/>
    <path d="M560 194 C594 158 621 214 655 174 S711 198 738 166" fill="none" stroke="#2f7a49" stroke-width="8" stroke-linecap="round"/>
    <rect x="540" y="256" width="220" height="44" rx="14" fill="#f3c45b" opacity=".9"/>
    <rect x="540" y="324" width="220" height="44" rx="14" fill="#c64628" opacity=".86"/>
    <rect x="540" y="392" width="220" height="44" rx="14" fill="#f7f9f5" opacity=".92"/>
  </g>
  <text x="560" y="616" font-family="Arial, sans-serif" font-size="48" font-weight="900" fill="#fff" opacity=".18">别人都发财了</text>
</svg>
