<svg xmlns="http://www.w3.org/2000/svg" viewBox="0 0 360 220" role="img" aria-label="工位还魂机">
  <defs>
    <filter id="shadow" x="-20%" y="-20%" width="140%" height="150%">
      <feDropShadow dx="0" dy="13" stdDeviation="9" flood-color="#10231d" flood-opacity=".42"/>
    </filter>
    <linearGradient id="body" x1="0" x2="1" y1="0" y2="1">
      <stop stop-color="#f3c45b"/>
      <stop offset="1" stop-color="#c84628"/>
    </linearGradient>
  </defs>
  <g filter="url(#shadow)">
    <rect x="36" y="42" width="288" height="132" rx="28" fill="url(#body)"/>
    <rect x="62" y="66" width="160" height="54" rx="14" fill="#17261f"/>
    <path d="M78 95 C110 72 128 118 156 86 S188 106 206 78" fill="none" stroke="#f3c45b" stroke-width="8" stroke-linecap="round"/>
    <circle cx="260" cy="92" r="30" fill="#fff2d6"/>
    <path d="M250 92 h20 M260 82 v20" stroke="#17261f" stroke-width="7" stroke-linecap="round"/>
    <rect x="82" y="137" width="196" height="18" rx="9" fill="#fff2d6" opacity=".82"/>
    <text x="104" y="152" font-family="Arial, sans-serif" font-size="16" font-weight="900" fill="#17261f">工位还魂机</text>
    <path d="M36 102 C14 90 14 126 36 116" fill="none" stroke="#f3c45b" stroke-width="12" stroke-linecap="round"/>
    <path d="M324 102 C348 88 350 128 324 116" fill="none" stroke="#f3c45b" stroke-width="12" stroke-linecap="round"/>
  </g>
</svg>
