<svg xmlns="http://www.w3.org/2000/svg" width="2880" height="820" viewBox="0 0 2880 820">
    <defs>
      <linearGradient id="skin" x1="0" x2="1" y1="0" y2="1"><stop stop-color="#ddb27b"/><stop offset=".64" stop-color="#c8925d"/><stop offset="1" stop-color="#8f5839"/></linearGradient>
      <linearGradient id="coat-cold" x1="0" x2="1"><stop stop-color="#182520"/><stop offset=".62" stop-color="#2d4037"/><stop offset="1" stop-color="#101a16"/></linearGradient>
      <linearGradient id="coat-warm" x1="0" x2="1"><stop stop-color="#233a30"/><stop offset=".62" stop-color="#42664f"/><stop offset="1" stop-color="#17241e"/></linearGradient>
    </defs>
    <g transform="translate(0 0) rotate(1.2000000000000028 360 390)">
    <ellipse cx="365" cy="720" rx="160" ry="34" fill="#04100d" opacity=".22"/>
    <path d="M338 247q28 18 64 1l-5 92q-34 22-69 0z" fill="url(#skin)"/>
    <path d="M250 331q114-50 230 0l50 280H203z" fill="url(#coat-warm)"/>
    <path d="M270 337q90 30 184 0l14 66q-96 42-212 0z" fill="#17261f" opacity=".46"/>
    <path d="M291 429q-30 48-72 112" stroke="url(#skin)" stroke-width="42" stroke-linecap="round" fill="none"/>
    <path d="M438 429q28 42 61 108" stroke="url(#skin)" stroke-width="42" stroke-linecap="round" fill="none"/>
    <g transform="translate(0 -12)">
      <path d="M301 132q28-66 103-54q64 11 77 74q9 42-12 79q-25 45-84 52q-70 8-95-44q-22-46 11-107z" fill="url(#skin)"/>
      <path d="M294 153q32-87 120-78q51 5 76 43q-49-14-99-8q-52 7-97 43z" fill="#2b211b"/>
      <path d="M438 135q24 42 8 87" stroke="#b98255" stroke-width="9" stroke-linecap="round" opacity=".28"/>
      <path d="M322 187q13 8 26 0M374 187q13 8 26 0" stroke="#241814" stroke-width="9" stroke-linecap="round" fill="none"/>
      <path d="M348 239q24 6 49 0" stroke="#8b3d2e" stroke-width="8" stroke-linecap="round" fill="none"/>
      <path d="M358 205q-9 17-22 32" stroke="#b98255" stroke-width="7" stroke-linecap="round" fill="none"/>
    </g>
    <g transform="translate(352 492) rotate(-12)">
      <rect x="-48" y="-78" width="96" height="142" rx="19" fill="#111814"/>
      <rect x="-36" y="-55" width="72" height="92" rx="9" fill="#bcd5ae"/>
      <path d="M-23-8l18-22 17 15 16-34" stroke="#c64628" stroke-width="8" fill="none" stroke-linecap="round" stroke-linejoin="round"/>
    </g>
    <path d="M290 627h68M385 627h72" stroke="#1b251f" stroke-width="58" stroke-linecap="round"/>
  </g><g transform="translate(720 0) rotate(1.2000000000000028 360 390)">
    <ellipse cx="365" cy="720" rx="160" ry="34" fill="#04100d" opacity=".22"/>
    <path d="M338 250q28 18 64 1l-5 92q-34 22-69 0z" fill="url(#skin)"/>
    <path d="M250 331q114-50 230 0l50 280H203z" fill="url(#coat-warm)"/>
    <path d="M270 337q90 30 184 0l14 66q-96 42-212 0z" fill="#17261f" opacity=".46"/>
    <path d="M291 429q-30 48-72 112" stroke="url(#skin)" stroke-width="42" stroke-linecap="round" fill="none"/>
    <path d="M438 429q28 42 61 108" stroke="url(#skin)" stroke-width="42" stroke-linecap="round" fill="none"/>
    <g transform="translate(0 -9)">
      <path d="M301 132q28-66 103-54q64 11 77 74q9 42-12 79q-25 45-84 52q-70 8-95-44q-22-46 11-107z" fill="url(#skin)"/>
      <path d="M294 153q32-87 120-78q51 5 76 43q-49-14-99-8q-52 7-97 43z" fill="#2b211b"/>
      <path d="M438 135q24 42 8 87" stroke="#b98255" stroke-width="9" stroke-linecap="round" opacity=".28"/>
      <path d="M322 187q13 8 26 0M374 187q13 8 26 0" stroke="#241814" stroke-width="9" stroke-linecap="round" fill="none"/>
      <path d="M348 239q24 6 49 0" stroke="#8b3d2e" stroke-width="8" stroke-linecap="round" fill="none"/>
      <path d="M358 205q-9 17-22 32" stroke="#b98255" stroke-width="7" stroke-linecap="round" fill="none"/>
    </g>
    <g transform="translate(352 492) rotate(-12)">
      <rect x="-48" y="-78" width="96" height="142" rx="19" fill="#111814"/>
      <rect x="-36" y="-55" width="72" height="92" rx="9" fill="#bcd5ae"/>
      <path d="M-23-8l18-22 17 15 16-34" stroke="#c64628" stroke-width="8" fill="none" stroke-linecap="round" stroke-linejoin="round"/>
    </g>
    <path d="M290 627h68M385 627h72" stroke="#1b251f" stroke-width="58" stroke-linecap="round"/>
  </g><g transform="translate(1440 0) rotate(1.2000000000000028 360 390)">
    <ellipse cx="365" cy="720" rx="160" ry="34" fill="#04100d" opacity=".22"/>
    <path d="M338 247q28 18 64 1l-5 92q-34 22-69 0z" fill="url(#skin)"/>
    <path d="M250 331q114-50 230 0l50 280H203z" fill="url(#coat-warm)"/>
    <path d="M270 337q90 30 184 0l14 66q-96 42-212 0z" fill="#17261f" opacity=".46"/>
    <path d="M291 429q-30 48-72 112" stroke="url(#skin)" stroke-width="42" stroke-linecap="round" fill="none"/>
    <path d="M438 429q28 42 61 108" stroke="url(#skin)" stroke-width="42" stroke-linecap="round" fill="none"/>
    <g transform="translate(0 -12)">
      <path d="M301 132q28-66 103-54q64 11 77 74q9 42-12 79q-25 45-84 52q-70 8-95-44q-22-46 11-107z" fill="url(#skin)"/>
      <path d="M294 153q32-87 120-78q51 5 76 43q-49-14-99-8q-52 7-97 43z" fill="#2b211b"/>
      <path d="M438 135q24 42 8 87" stroke="#b98255" stroke-width="9" stroke-linecap="round" opacity=".28"/>
      <path d="M322 187q13 8 26 0M374 187q13 8 26 0" stroke="#241814" stroke-width="9" stroke-linecap="round" fill="none"/>
      <path d="M348 239q24 6 49 0" stroke="#8b3d2e" stroke-width="8" stroke-linecap="round" fill="none"/>
      <path d="M358 205q-9 17-22 32" stroke="#b98255" stroke-width="7" stroke-linecap="round" fill="none"/>
    </g>
    <g transform="translate(352 492) rotate(-12)">
      <rect x="-48" y="-78" width="96" height="142" rx="19" fill="#111814"/>
      <rect x="-36" y="-55" width="72" height="92" rx="9" fill="#bcd5ae"/>
      <path d="M-23-8l18-22 17 15 16-34" stroke="#c64628" stroke-width="8" fill="none" stroke-linecap="round" stroke-linejoin="round"/>
    </g>
    <path d="M290 627h68M385 627h72" stroke="#1b251f" stroke-width="58" stroke-linecap="round"/>
  </g><g transform="translate(2160 0) rotate(1.2000000000000028 360 390)">
    <ellipse cx="365" cy="720" rx="160" ry="34" fill="#04100d" opacity=".22"/>
    <path d="M338 250q28 18 64 1l-5 92q-34 22-69 0z" fill="url(#skin)"/>
    <path d="M250 331q114-50 230 0l50 280H203z" fill="url(#coat-warm)"/>
    <path d="M270 337q90 30 184 0l14 66q-96 42-212 0z" fill="#17261f" opacity=".46"/>
    <path d="M291 429q-30 48-72 112" stroke="url(#skin)" stroke-width="42" stroke-linecap="round" fill="none"/>
    <path d="M438 429q28 42 61 108" stroke="url(#skin)" stroke-width="42" stroke-linecap="round" fill="none"/>
    <g transform="translate(0 -9)">
      <path d="M301 132q28-66 103-54q64 11 77 74q9 42-12 79q-25 45-84 52q-70 8-95-44q-22-46 11-107z" fill="url(#skin)"/>
      <path d="M294 153q32-87 120-78q51 5 76 43q-49-14-99-8q-52 7-97 43z" fill="#2b211b"/>
      <path d="M438 135q24 42 8 87" stroke="#b98255" stroke-width="9" stroke-linecap="round" opacity=".28"/>
      <path d="M322 187q13 8 26 0M374 187q13 8 26 0" stroke="#241814" stroke-width="9" stroke-linecap="round" fill="none"/>
      <path d="M348 239q24 6 49 0" stroke="#8b3d2e" stroke-width="8" stroke-linecap="round" fill="none"/>
      <path d="M358 205q-9 17-22 32" stroke="#b98255" stroke-width="7" stroke-linecap="round" fill="none"/>
    </g>
    <g transform="translate(352 492) rotate(-12)">
      <rect x="-48" y="-78" width="96" height="142" rx="19" fill="#111814"/>
      <rect x="-36" y="-55" width="72" height="92" rx="9" fill="#bcd5ae"/>
      <path d="M-23-8l18-22 17 15 16-34" stroke="#c64628" stroke-width="8" fill="none" stroke-linecap="round" stroke-linejoin="round"/>
    </g>
    <path d="M290 627h68M385 627h72" stroke="#1b251f" stroke-width="58" stroke-linecap="round"/>
  </g>
  </svg>