<svg xmlns="http://www.w3.org/2000/svg" width="2880" height="820" viewBox="0 0 2880 820">
    <g transform="translate(0 0) rotate(-7 360 390)">
    <ellipse cx="365" cy="720" rx="160" ry="34" fill="#04100d" opacity=".22"/>
    <path d="M245 412q120-72 242 0l42 235H204z" fill="#24342e"/>
    <path d="M257 420q104 38 211 0l15 70q-112 45-241 0z" fill="#17261f" opacity=".55"/>
    <path d="M291 512q-52 48-72 112" stroke="#c69a64" stroke-width="42" stroke-linecap="round" fill="none"/>
    <path d="M438 512q46 42 61 108" stroke="#c69a64" stroke-width="42" stroke-linecap="round" fill="none"/>
    <g transform="translate(0 -2)">
      <path d="M301 132q28-66 103-54q64 11 77 74q9 42-12 79q-25 45-84 52q-70 8-95-44q-22-46 11-107z" fill="#d2a06d"/>
      <path d="M294 153q32-87 120-78q51 5 76 43q-49-14-99-8q-52 7-97 43z" fill="#2b211b"/>
      <path d="M322 191h26M374 191h26" stroke="#241814" stroke-width="9" stroke-linecap="round" fill="none"/>
      <path d="M345 238q28 -8 55 0" stroke="#8b3d2e" stroke-width="8" stroke-linecap="round" fill="none"/>
      <path d="M358 205q-9 17-22 32" stroke="#b98255" stroke-width="7" stroke-linecap="round" fill="none"/>
    </g>
    <g transform="translate(352 448) rotate(-12)">
      <rect x="-48" y="-78" width="96" height="142" rx="19" fill="#111814"/>
      <rect x="-36" y="-55" width="72" height="92" rx="9" fill="#f0d783"/>
      <path d="M-23-8l18-22 17 15 16-34" stroke="#c64628" stroke-width="8" fill="none" stroke-linecap="round" stroke-linejoin="round"/>
    </g>
    <path d="M290 627h68M385 627h72" stroke="#1b251f" stroke-width="58" stroke-linecap="round"/>
  </g><g transform="translate(720 0) rotate(-7 360 390)">
    <ellipse cx="365" cy="720" rx="160" ry="34" fill="#04100d" opacity=".22"/>
    <path d="M245 412q120-72 242 0l42 235H204z" fill="#24342e"/>
    <path d="M257 420q104 38 211 0l15 70q-112 45-241 0z" fill="#17261f" opacity=".55"/>
    <path d="M291 512q-52 48-72 112" stroke="#c69a64" stroke-width="42" stroke-linecap="round" fill="none"/>
    <path d="M438 512q46 42 61 108" stroke="#c69a64" stroke-width="42" stroke-linecap="round" fill="none"/>
    <g transform="translate(0 1)">
      <path d="M301 132q28-66 103-54q64 11 77 74q9 42-12 79q-25 45-84 52q-70 8-95-44q-22-46 11-107z" fill="#d2a06d"/>
      <path d="M294 153q32-87 120-78q51 5 76 43q-49-14-99-8q-52 7-97 43z" fill="#2b211b"/>
      <path d="M322 191h26M374 191h26" stroke="#241814" stroke-width="9" stroke-linecap="round" fill="none"/>
      <path d="M345 238q28 -8 55 0" stroke="#8b3d2e" stroke-width="8" stroke-linecap="round" fill="none"/>
      <path d="M358 205q-9 17-22 32" stroke="#b98255" stroke-width="7" stroke-linecap="round" fill="none"/>
    </g>
    <g transform="translate(352 448) rotate(-12)">
      <rect x="-48" y="-78" width="96" height="142" rx="19" fill="#111814"/>
      <rect x="-36" y="-55" width="72" height="92" rx="9" fill="#f0d783"/>
      <path d="M-23-8l18-22 17 15 16-34" stroke="#c64628" stroke-width="8" fill="none" stroke-linecap="round" stroke-linejoin="round"/>
    </g>
    <path d="M290 627h68M385 627h72" stroke="#1b251f" stroke-width="58" stroke-linecap="round"/>
  </g><g transform="translate(1440 0) rotate(-7 360 390)">
    <ellipse cx="365" cy="720" rx="160" ry="34" fill="#04100d" opacity=".22"/>
    <path d="M245 412q120-72 242 0l42 235H204z" fill="#24342e"/>
    <path d="M257 420q104 38 211 0l15 70q-112 45-241 0z" fill="#17261f" opacity=".55"/>
    <path d="M291 512q-52 48-72 112" stroke="#c69a64" stroke-width="42" stroke-linecap="round" fill="none"/>
    <path d="M438 512q46 42 61 108" stroke="#c69a64" stroke-width="42" stroke-linecap="round" fill="none"/>
    <g transform="translate(0 -2)">
      <path d="M301 132q28-66 103-54q64 11 77 74q9 42-12 79q-25 45-84 52q-70 8-95-44q-22-46 11-107z" fill="#d2a06d"/>
      <path d="M294 153q32-87 120-78q51 5 76 43q-49-14-99-8q-52 7-97 43z" fill="#2b211b"/>
      <path d="M322 191h26M374 191h26" stroke="#241814" stroke-width="9" stroke-linecap="round" fill="none"/>
      <path d="M345 238q28 -8 55 0" stroke="#8b3d2e" stroke-width="8" stroke-linecap="round" fill="none"/>
      <path d="M358 205q-9 17-22 32" stroke="#b98255" stroke-width="7" stroke-linecap="round" fill="none"/>
    </g>
    <g transform="translate(352 448) rotate(-12)">
      <rect x="-48" y="-78" width="96" height="142" rx="19" fill="#111814"/>
      <rect x="-36" y="-55" width="72" height="92" rx="9" fill="#f0d783"/>
      <path d="M-23-8l18-22 17 15 16-34" stroke="#c64628" stroke-width="8" fill="none" stroke-linecap="round" stroke-linejoin="round"/>
    </g>
    <path d="M290 627h68M385 627h72" stroke="#1b251f" stroke-width="58" stroke-linecap="round"/>
  </g><g transform="translate(2160 0) rotate(-7 360 390)">
    <ellipse cx="365" cy="720" rx="160" ry="34" fill="#04100d" opacity=".22"/>
    <path d="M245 412q120-72 242 0l42 235H204z" fill="#24342e"/>
    <path d="M257 420q104 38 211 0l15 70q-112 45-241 0z" fill="#17261f" opacity=".55"/>
    <path d="M291 512q-52 48-72 112" stroke="#c69a64" stroke-width="42" stroke-linecap="round" fill="none"/>
    <path d="M438 512q46 42 61 108" stroke="#c69a64" stroke-width="42" stroke-linecap="round" fill="none"/>
    <g transform="translate(0 1)">
      <path d="M301 132q28-66 103-54q64 11 77 74q9 42-12 79q-25 45-84 52q-70 8-95-44q-22-46 11-107z" fill="#d2a06d"/>
      <path d="M294 153q32-87 120-78q51 5 76 43q-49-14-99-8q-52 7-97 43z" fill="#2b211b"/>
      <path d="M322 191h26M374 191h26" stroke="#241814" stroke-width="9" stroke-linecap="round" fill="none"/>
      <path d="M345 238q28 -8 55 0" stroke="#8b3d2e" stroke-width="8" stroke-linecap="round" fill="none"/>
      <path d="M358 205q-9 17-22 32" stroke="#b98255" stroke-width="7" stroke-linecap="round" fill="none"/>
    </g>
    <g transform="translate(352 448) rotate(-12)">
      <rect x="-48" y="-78" width="96" height="142" rx="19" fill="#111814"/>
      <rect x="-36" y="-55" width="72" height="92" rx="9" fill="#f0d783"/>
      <path d="M-23-8l18-22 17 15 16-34" stroke="#c64628" stroke-width="8" fill="none" stroke-linecap="round" stroke-linejoin="round"/>
    </g>
    <path d="M290 627h68M385 627h72" stroke="#1b251f" stroke-width="58" stroke-linecap="round"/>
  </g>
  </svg>