<svg xmlns="http://www.w3.org/2000/svg" width="360" height="300" viewBox="0 0 360 300">
    <defs>
      <filter id="ground" x="-35%" y="-35%" width="170%" height="170%">
      <feDropShadow dx="0" dy="18" stdDeviation="12" flood-color="#020806" flood-opacity=".34"/>
    </filter>
    <filter id="grain" x="-10%" y="-10%" width="120%" height="120%">
      <feTurbulence type="fractalNoise" baseFrequency=".85" numOctaves="2" seed="9"/>
      <feColorMatrix type="saturate" values="0"/>
      <feComponentTransfer><feFuncA type="table" tableValues="0 .08"/></feComponentTransfer>
      <feBlend mode="multiply" in2="SourceGraphic"/>
    </filter>
      <linearGradient id="m" x1="0" x2="1"><stop stop-color="#13211b"/><stop offset=".62" stop-color="#315344"/><stop offset="1" stop-color="#16231d"/></linearGradient>
    </defs>
    <ellipse cx="183" cy="251" rx="125" ry="25" fill="#03100c" opacity=".28"/>
    <g filter="url(#ground)">
      <path d="M52 78h250l23 131-22 29H57l-23-31z" fill="url(#m)" stroke="#6f8f79" stroke-width="8"/>
      <path d="M82 106h128l10 64H91z" fill="#08120f" stroke="#d8bd61" stroke-width="5"/>
      <path d="M105 141h21l13-19 19 39 16-29 18 9" stroke="#f3c45b" stroke-width="7" fill="none" stroke-linecap="round" stroke-linejoin="round"/>
      <circle cx="265" cy="122" r="18" fill="#b9462c"/><circle cx="272" cy="174" r="18" fill="#4f8d5d"/>
      <path d="M83 210h194" stroke="#0b1712" stroke-width="16" stroke-linecap="round"/>
      <path d="M87 234v28M276 234v28" stroke="#0b1712" stroke-width="15" stroke-linecap="round"/>
      <path d="M66 81h224" stroke="#f2e0a4" stroke-width="5" opacity=".16"/>
      <path d="M236 205l35 1" stroke="#fff1c7" stroke-width="8" stroke-linecap="round" opacity=".78"/>
    </g>
  </svg>