<svg xmlns="http://www.w3.org/2000/svg" viewBox="0 0 900 760" role="img" aria-label="彩票财神庙背景">
  <defs>
    <linearGradient id="sky" x1="0" x2="0" y1="0" y2="1">
      <stop stop-color="#2b1f2e"/>
      <stop offset=".52" stop-color="#7a3b2e"/>
      <stop offset="1" stop-color="#f3c45b"/>
    </linearGradient>
    <filter id="shadow" x="-20%" y="-20%" width="140%" height="145%">
      <feDropShadow dx="0" dy="18" stdDeviation="14" flood-color="#1f1110" flood-opacity=".38"/>
    </filter>
  </defs>
  <rect width="900" height="760" fill="url(#sky)"/>
  <circle cx="718" cy="106" r="96" fill="#ffe2a8" opacity=".22"/>
  <g opacity=".35" fill="#211819">
    <path d="M80 250 h160 v330 H80z"/>
    <path d="M642 220 h172 v360 H642z"/>
    <path d="M330 300 h120 v280 H330z"/>
  </g>
  <g filter="url(#shadow)">
    <path d="M162 334 L450 126 L738 334 Z" fill="#c64628"/>
    <path d="M208 334 L450 176 L692 334 Z" fill="#f3c45b"/>
    <rect x="202" y="334" width="496" height="270" rx="18" fill="#7b2f27"/>
    <rect x="270" y="400" width="132" height="204" rx="10" fill="#321f1a"/>
    <rect x="500" y="400" width="132" height="204" rx="10" fill="#321f1a"/>
    <rect x="334" y="250" width="232" height="74" rx="16" fill="#17261f"/>
    <text x="365" y="299" font-family="Arial, sans-serif" font-size="36" font-weight="900" fill="#f3c45b">财申庙</text>
  </g>
  <g filter="url(#shadow)">
    <rect x="98" y="514" width="174" height="98" rx="20" fill="#fff2d6"/>
    <text x="125" y="557" font-family="Arial, sans-serif" font-size="24" font-weight="900" fill="#c64628">刮刮泪</text>
    <text x="127" y="588" font-family="Arial, sans-serif" font-size="15" fill="#17261f">两块钱办大梦</text>
  </g>
  <path d="M0 616 C160 574 285 632 450 600 S750 574 900 624 V760 H0 Z" fill="#201816" opacity=".48"/>
</svg>
