<svg xmlns="http://www.w3.org/2000/svg" viewBox="0 0 260 210" role="img" aria-label="黄金香炉">
  <defs>
    <filter id="shadow" x="-20%" y="-20%" width="140%" height="150%">
      <feDropShadow dx="0" dy="12" stdDeviation="8" flood-color="#10231d" flood-opacity=".42"/>
    </filter>
    <linearGradient id="gold" x1="0" x2="1" y1="0" y2="1">
      <stop stop-color="#f5d66d"/>
      <stop offset="1" stop-color="#c84628"/>
    </linearGradient>
  </defs>
  <g filter="url(#shadow)">
    <path d="M61 82 h138 l-15 82 H76z" fill="url(#gold)"/>
    <path d="M48 83 C29 73 30 112 58 103 M202 83 C232 71 231 113 202 103" fill="none" stroke="#f3c45b" stroke-width="12" stroke-linecap="round"/>
    <rect x="79" y="64" width="102" height="23" rx="12" fill="#fff2d6"/>
    <path d="M91 164 h78 l17 22 H74z" fill="#7d5a16"/>
    <path d="M103 69 L93 23 M130 66 L130 17 M156 69 L169 25" stroke="#7d5a16" stroke-width="7" stroke-linecap="round"/>
    <path d="M91 21 C73 8 80 47 61 38 M132 14 C113 2 121 37 105 31 M170 22 C190 6 180 49 201 39" fill="none" stroke="#dbe8dd" stroke-width="6" stroke-linecap="round" opacity=".72"/>
    <text x="96" y="127" font-family="Arial, sans-serif" font-size="20" font-weight="900" fill="#17261f">只求暴富</text>
  </g>
</svg>
