<svg xmlns="http://www.w3.org/2000/svg" viewBox="0 0 300 210" role="img" aria-label="财神庙许愿墙">
  <defs>
    <filter id="shadow" x="-20%" y="-20%" width="140%" height="150%">
      <feDropShadow dx="0" dy="10" stdDeviation="7" flood-color="#10231d" flood-opacity=".36"/>
    </filter>
  </defs>
  <g filter="url(#shadow)">
    <rect x="20" y="24" width="260" height="160" rx="18" fill="#7b251d"/>
    <rect x="38" y="42" width="224" height="124" rx="8" fill="#a53a28"/>
    <g font-family="Arial, sans-serif" font-weight="900" font-size="14" fill="#17261f">
      <rect x="51" y="54" width="62" height="38" rx="4" fill="#f5d66d"/><text x="62" y="78">中一亿</text>
      <rect x="126" y="50" width="74" height="42" rx="4" fill="#fff2d6"/><text x="138" y="75">少上班</text>
      <rect x="211" y="58" width="34" height="82" rx="4" fill="#f3c45b"/><text x="221" y="84">金</text><text x="221" y="105">价</text><text x="221" y="126">涨</text>
      <rect x="58" y="108" width="82" height="40" rx="4" fill="#fff2d6"/><text x="69" y="133">房贷消失</text>
      <rect x="151" y="105" width="48" height="44" rx="4" fill="#f5d66d"/><text x="162" y="131">躺赢</text>
    </g>
    <path d="M20 58 h260 M20 150 h260" stroke="#f3c45b" stroke-width="8" opacity=".75"/>
    <circle cx="150" cy="33" r="9" fill="#f3c45b"/>
  </g>
</svg>
